<?xml version="1.0" standalone="no"?>
<svg xmlns:xlink="http://www.w3.org/1999/xlink" id="wave" style="transform:rotate(180deg); transition: 0.3s" viewBox="0 0 1440 490" version="1.1" xmlns="http://www.w3.org/2000/svg"><defs><linearGradient id="sw-gradient-0" x1="0" x2="0" y1="1" y2="0"><stop stop-color="rgba(255, 255, 255, 1)" offset="0%"/><stop stop-color="rgba(255, 255, 255, 1)" offset="100%"/></linearGradient></defs><path style="transform:translate(0, 0px); opacity:1" fill="url(#sw-gradient-0)" d="M0,147L40,147C80,147,160,147,240,130.7C320,114,400,82,480,130.7C560,180,640,310,720,343C800,376,880,310,960,277.7C1040,245,1120,245,1200,204.2C1280,163,1360,82,1440,114.3C1520,147,1600,294,1680,367.5C1760,441,1840,441,1920,383.8C2000,327,2080,212,2160,187.8C2240,163,2320,229,2400,269.5C2480,310,2560,327,2640,318.5C2720,310,2800,278,2880,228.7C2960,180,3040,114,3120,147C3200,180,3280,310,3360,351.2C3440,392,3520,343,3600,277.7C3680,212,3760,131,3840,130.7C3920,131,4000,212,4080,204.2C4160,196,4240,98,4320,106.2C4400,114,4480,229,4560,253.2C4640,278,4720,212,4800,179.7C4880,147,4960,147,5040,179.7C5120,212,5200,278,5280,294C5360,310,5440,278,5520,253.2C5600,229,5680,212,5720,204.2L5760,196L5760,490L5720,490C5680,490,5600,490,5520,490C5440,490,5360,490,5280,490C5200,490,5120,490,5040,490C4960,490,4880,490,4800,490C4720,490,4640,490,4560,490C4480,490,4400,490,4320,490C4240,490,4160,490,4080,490C4000,490,3920,490,3840,490C3760,490,3680,490,3600,490C3520,490,3440,490,3360,490C3280,490,3200,490,3120,490C3040,490,2960,490,2880,490C2800,490,2720,490,2640,490C2560,490,2480,490,2400,490C2320,490,2240,490,2160,490C2080,490,2000,490,1920,490C1840,490,1760,490,1680,490C1600,490,1520,490,1440,490C1360,490,1280,490,1200,490C1120,490,1040,490,960,490C880,490,800,490,720,490C640,490,560,490,480,490C400,490,320,490,240,490C160,490,80,490,40,490L0,490Z"/></svg>